<svg width="11" height="10" viewBox="0 0 11 10" fill="none" xmlns="http://www.w3.org/2000/svg">
<path d="M5.12324 8.15367C5.16528 8.20919 5.22155 8.25458 5.28718 8.28594C5.35281 8.3173 5.42584 8.33368 5.49999 8.33368C5.57413 8.33368 5.64716 8.3173 5.7128 8.28594C5.77843 8.25458 5.83469 8.20919 5.87674 8.15367L10.0017 2.737C10.0495 2.67453 10.0775 2.60135 10.0827 2.52542C10.0879 2.44949 10.0701 2.37372 10.0313 2.30633C9.99246 2.23895 9.93405 2.18252 9.86242 2.14319C9.79079 2.10386 9.70867 2.08313 9.62499 2.08325H1.37499C1.2915 2.08357 1.20968 2.10456 1.13834 2.14399C1.067 2.18341 1.00883 2.23977 0.97008 2.307C0.931335 2.37423 0.913484 2.44979 0.918445 2.52556C0.923406 2.60132 0.950992 2.67442 0.998236 2.737L5.12324 8.15367Z" fill="#888888"/>
</svg>
