<svg width="11" height="10" viewBox="0 0 11 10" fill="none" xmlns="http://www.w3.org/2000/svg">
<path d="M3.66667 5.83325C3.53681 5.83325 3.42788 5.79325 3.33988 5.71325C3.25218 5.63353 3.20833 5.53464 3.20833 5.41659C3.20833 5.29853 3.25218 5.1995 3.33988 5.1195C3.42788 5.03978 3.53681 4.99992 3.66667 4.99992C3.79653 4.99992 3.90546 5.03978 3.99346 5.1195C4.08115 5.1995 4.125 5.29853 4.125 5.41659C4.125 5.53464 4.08115 5.63353 3.99346 5.71325C3.90546 5.79325 3.79653 5.83325 3.66667 5.83325ZM5.5 5.83325C5.37014 5.83325 5.26136 5.79325 5.17367 5.71325C5.08567 5.63353 5.04167 5.53464 5.04167 5.41659C5.04167 5.29853 5.08567 5.1995 5.17367 5.1195C5.26136 5.03978 5.37014 4.99992 5.5 4.99992C5.62986 4.99992 5.73879 5.03978 5.82679 5.1195C5.91449 5.1995 5.95833 5.29853 5.95833 5.41659C5.95833 5.53464 5.91449 5.63353 5.82679 5.71325C5.73879 5.79325 5.62986 5.83325 5.5 5.83325ZM7.33333 5.83325C7.20347 5.83325 7.09469 5.79325 7.007 5.71325C6.919 5.63353 6.875 5.53464 6.875 5.41659C6.875 5.29853 6.919 5.1995 7.007 5.1195C7.09469 5.03978 7.20347 4.99992 7.33333 4.99992C7.46319 4.99992 7.57197 5.03978 7.65967 5.1195C7.74767 5.1995 7.79167 5.29853 7.79167 5.41659C7.79167 5.53464 7.74767 5.63353 7.65967 5.71325C7.57197 5.79325 7.46319 5.83325 7.33333 5.83325ZM2.29167 9.16659C2.03958 9.16659 1.82371 9.08506 1.64404 8.922C1.46468 8.75867 1.375 8.56242 1.375 8.33325V2.49992C1.375 2.27075 1.46468 2.07464 1.64404 1.91159C1.82371 1.74825 2.03958 1.66659 2.29167 1.66659H2.75V0.833252H3.66667V1.66659H7.33333V0.833252H8.25V1.66659H8.70833C8.96042 1.66659 9.17629 1.74825 9.35596 1.91159C9.53532 2.07464 9.625 2.27075 9.625 2.49992V8.33325C9.625 8.56242 9.53532 8.75867 9.35596 8.922C9.17629 9.08506 8.96042 9.16659 8.70833 9.16659H2.29167ZM2.29167 8.33325H8.70833V4.16659H2.29167V8.33325Z" fill="black"/>
</svg>
