<svg width="41" height="33" viewBox="0 0 41 33" fill="none" xmlns="http://www.w3.org/2000/svg">
    <path d="M17.6704 -2.03954e-06L2.30986 -3.3824e-06L2.30986 16.1538L9.35493 16.1538C8.96996 18.4615 7.96901 20.4615 6.35211 22.1538C4.73522 23.8462 2.61784 25 6.45583e-07 25.6154L0 33C5.85164 31.7692 10.2789 29.1538 13.2817 25.1538C16.2075 21.1538 17.6704 16.0769 17.6704 9.92308L17.6704 -2.03954e-06ZM41 0L25.7549 -1.33277e-06L25.7549 16.1538L32.8 16.1538C32.415 18.4615 31.4141 20.4615 29.7972 22.1539C28.1803 23.8462 26.0629 25 23.4451 25.6154L23.4451 33C29.2197 31.7692 33.6085 29.1538 36.6113 25.1538C39.5371 21.1538 41 16.0769 41 9.92308L41 0Z" fill="#E63F07"/>
    </svg>
    