<svg width="153" height="204" viewBox="0 0 153 204" fill="none" xmlns="http://www.w3.org/2000/svg">
    <rect x="116.964" y="83" width="96.6213" height="4" rx="2" transform="rotate(52.3379 116.964 83)" fill="#ECF4DB" />
    <rect x="46.1007" y="185.002" width="30.9318" height="4" rx="2" transform="rotate(52.3379 46.1007 185.002)" fill="#ECF4DB" />
    <rect x="52.9642" width="96.6213" height="4" rx="2" transform="rotate(52.3379 52.9642 0)" fill="#ECF4DB" />
    <rect x="106.964" y="48" width="96.6213" height="4" rx="2" transform="rotate(52.3379 106.964 48)" fill="#ECF4DB" />
    <rect x="106.964" y="26" width="96.6213" height="4" rx="2" transform="rotate(52.3379 106.964 26)" fill="#ECF4DB" />
    <rect x="34.9642" y="147" width="96.6213" height="4" rx="2" transform="rotate(52.3379 34.9642 147)" fill="#ECF4DB" />
    <rect x="88.9642" y="195" width="96.6213" height="4" rx="2" transform="rotate(52.3379 88.9642 195)" fill="#ECF4DB" />
    <rect x="2.96423" y="171" width="96.6213" height="4" rx="2" transform="rotate(52.3379 2.96423 171)" fill="#ECF4DB" />
    <rect x="107.964" y="135" width="96.6213" height="4" rx="2" transform="rotate(52.3379 107.964 135)" fill="#ECF4DB" />
    <rect x="98.4164" y="123.844" width="5.86557" height="4" rx="2" transform="rotate(52.3379 98.4164 123.844)" fill="#ECF4DB" />
    <rect x="55.8361" y="70.4922" width="60.8243" height="4" rx="2" transform="rotate(52.3379 55.8361 70.4922)" fill="#ECF4DB" />
    <rect x="56.8363" y="134" width="60.8243" height="4" rx="2" transform="rotate(52.3379 56.8363 134)" fill="#ECF4DB" />
    <rect x="135.804" y="130" width="129.617" height="4" rx="2" transform="rotate(52.3379 135.804 130)" fill="#ECF4DB" />
    <rect x="122.804" y="135" width="129.617" height="4" rx="2" transform="rotate(52.3379 122.804 135)" fill="#ECF4DB" />
    <rect x="39.8038" y="26" width="129.617" height="4" rx="2" transform="rotate(52.3379 39.8038 26)" fill="#ECF4DB" />
    <rect x="23.5502" y="48" width="174.222" height="4" rx="2" transform="rotate(52.3379 23.5502 48)" fill="#ECF4DB" />
    <rect x="107.964" y="199" width="96.6213" height="4" rx="2" transform="rotate(52.3379 107.964 199)" fill="#ECF4DB" />
    <rect x="98.4164" y="187.844" width="5.86557" height="4" rx="2" transform="rotate(52.3379 98.4164 187.844)" fill="#ECF4DB" />
    <rect x="135.804" y="194" width="129.617" height="4" rx="2" transform="rotate(52.3379 135.804 194)" fill="#ECF4DB" />
    <rect x="122.804" y="199" width="129.617" height="4" rx="2" transform="rotate(52.3379 122.804 199)" fill="#ECF4DB" />
    <rect x="39.8038" y="90" width="129.617" height="4" rx="2" transform="rotate(52.3379 39.8038 90)" fill="#ECF4DB" />
    <rect x="70.8038" y="44" width="129.617" height="4" rx="2" transform="rotate(52.3379 70.8038 44)" fill="#ECF4DB" />
</svg>
    