<svg width="10" height="12" viewBox="0 0 10 12" fill="none" xmlns="http://www.w3.org/2000/svg">
<path d="M4.7968 6.94468C6.25095 6.94468 7.43073 5.57494 7.43073 3.88665C7.43073 2.19836 6.25095 0.828613 4.7968 0.828613C3.34265 0.828613 2.16287 2.19836 2.16287 3.88665C2.16287 5.57494 3.34265 6.94468 4.7968 6.94468ZM7.13807 7.62424H6.13022C5.72416 7.84086 5.27237 7.96403 4.7968 7.96403C4.32123 7.96403 3.87126 7.84086 3.46337 7.62424H2.45553C1.16234 7.62424 0.114258 8.84109 0.114258 10.3425V10.6823C0.114258 11.245 0.507518 11.7016 0.992234 11.7016H8.60136C9.08608 11.7016 9.47934 11.245 9.47934 10.6823V10.3425C9.47934 8.84109 8.43125 7.62424 7.13807 7.62424Z" fill="black"/>
</svg>
