<svg width="10" height="9" viewBox="0 0 10 9" fill="none" xmlns="http://www.w3.org/2000/svg">
<path d="M8.58917 0H0.780833C0.349748 0 0 0.407924 0 0.910714V7.58929C0 8.09208 0.349748 8.5 0.780833 8.5H8.58917C9.02025 8.5 9.37 8.09208 9.37 7.58929V0.910714C9.37 0.407924 9.02025 0 8.58917 0ZM2.86306 1.82143C3.43729 1.82143 3.90417 2.36596 3.90417 3.03571C3.90417 3.70547 3.43729 4.25 2.86306 4.25C2.28882 4.25 1.82194 3.70547 1.82194 3.03571C1.82194 2.36596 2.28882 1.82143 2.86306 1.82143ZM4.685 6.31429C4.685 6.5154 4.52233 6.67857 4.32061 6.67857H1.4055C1.20378 6.67857 1.04111 6.5154 1.04111 6.31429V5.95C1.04111 5.34665 1.53076 4.85714 2.13428 4.85714H2.21561C2.4157 4.95391 2.63369 5.00893 2.86306 5.00893C3.09243 5.00893 3.31203 4.95391 3.5105 4.85714H3.59183C4.19535 4.85714 4.685 5.34665 4.685 5.95V6.31429ZM8.32889 5.3125C8.32889 5.39598 8.27033 5.46429 8.19875 5.46429H5.85625C5.78467 5.46429 5.72611 5.39598 5.72611 5.3125V5.00893C5.72611 4.92545 5.78467 4.85714 5.85625 4.85714H8.19875C8.27033 4.85714 8.32889 4.92545 8.32889 5.00893V5.3125ZM8.32889 4.09821C8.32889 4.1817 8.27033 4.25 8.19875 4.25H5.85625C5.78467 4.25 5.72611 4.1817 5.72611 4.09821V3.79464C5.72611 3.71116 5.78467 3.64286 5.85625 3.64286H8.19875C8.27033 3.64286 8.32889 3.71116 8.32889 3.79464V4.09821ZM8.32889 2.88393C8.32889 2.96741 8.27033 3.03571 8.19875 3.03571H5.85625C5.78467 3.03571 5.72611 2.96741 5.72611 2.88393V2.58036C5.72611 2.49688 5.78467 2.42857 5.85625 2.42857H8.19875C8.27033 2.42857 8.32889 2.49688 8.32889 2.58036V2.88393Z" fill="black"/>
</svg>
