<svg width="11" height="10" viewBox="0 0 11 10" fill="none" xmlns="http://www.w3.org/2000/svg">
<path d="M10.3104 9.99999C4.44538 10.0075 -0.00618105 5.91249 6.44235e-06 0.626874C6.44235e-06 0.28125 0.308006 0 0.687506 0H2.5025C2.84282 0 3.13225 0.2275 3.18244 0.53375C3.30214 1.26816 3.53714 1.98315 3.88025 2.65687L3.95107 2.79562C3.99863 2.88899 4.00887 2.99452 3.98 3.09402C3.95113 3.19351 3.88498 3.28073 3.79294 3.34062C3.23057 3.70562 3.01607 4.44 3.454 5.0125C4.00537 5.73332 4.69353 6.35913 5.48625 6.86062C6.11669 7.25812 6.9245 7.06312 7.32531 6.55249C7.39113 6.46857 7.48715 6.40821 7.59675 6.38184C7.70635 6.35548 7.82264 6.36477 7.9255 6.40812L8.07744 6.47187C8.81856 6.78437 9.60506 6.99812 10.4129 7.10687C10.7497 7.15249 11 7.41562 11 7.72562V9.37499C11 9.45712 10.9822 9.53844 10.9476 9.61431C10.913 9.69018 10.8623 9.75911 10.7984 9.81715C10.7345 9.8752 10.6586 9.92122 10.5751 9.95259C10.4916 9.98397 10.4022 10.0001 10.3118 9.99999H10.3104Z" fill="black"/>
</svg>
